REM DIRINDEX 1\6,1\2\7,1\2\8,1\2\9,1\3\10,1\3\11,1\4\12,1\4\13,1\4\14,1\5\15,1\5\16,1\5\17
REM DIRNAME folder01,folder02,folder03,folder04,folder05,folder06,folder07,folder08,folder09,folder10,folder11,folder12,folder13,folder14,folder15,folder16,folder17
TITLE ""
FILE "P2Q_t_0179-0196.mp3" MP3
  TRACK 01 AUDIO
    TITLE "10:cjc040_2007"
    INDEX 01 00:00:00
  TRACK 02 AUDIO
    TITLE "0:"
    INDEX 01 00:01:03
  TRACK 03 AUDIO
    TITLE "11:cjc040_2008"
    INDEX 01 00:01:58
  TRACK 04 AUDIO
    TITLE "0:"
    INDEX 01 00:03:06
  TRACK 05 AUDIO
    TITLE "10:cjc040_2009"
    INDEX 01 00:03:57
  TRACK 06 AUDIO
    TITLE "0:"
    INDEX 01 00:04:72
  TRACK 07 AUDIO
    TITLE "11:cjc040_2010"
    INDEX 01 00:05:50
  TRACK 08 AUDIO
    TITLE "0:"
    INDEX 01 00:07:64
  TRACK 09 AUDIO
    TITLE "10:cjc040_2011"
    INDEX 01 00:08:44
  TRACK 10 AUDIO
    TITLE "0:"
    INDEX 01 00:09:61
  TRACK 11 AUDIO
    TITLE "11:cjc040_2012"
    INDEX 01 00:10:39
  TRACK 12 AUDIO
    TITLE "0:"
    INDEX 01 00:11:31
  TRACK 13 AUDIO
    TITLE "10:cjc040_2013"
    INDEX 01 00:12:09
  TRACK 14 AUDIO
    TITLE "0:"
    INDEX 01 00:13:37
  TRACK 15 AUDIO
    TITLE "11:cjc040_2014"
    INDEX 01 00:14:15
  TRACK 16 AUDIO
    TITLE "0:"
    INDEX 01 00:15:23
  TRACK 17 AUDIO
    TITLE "10:cjc040_2015"
    INDEX 01 00:16:04
  TRACK 18 AUDIO
    TITLE "0:"
    INDEX 01 00:17:08
  TRACK 19 AUDIO
    TITLE "11:cjc040_2016"
    INDEX 01 00:17:65
  TRACK 20 AUDIO
    TITLE "0:"
    INDEX 01 00:20:18
  TRACK 21 AUDIO
    TITLE "10:cjc040_2017"
    INDEX 01 00:20:71
  TRACK 22 AUDIO
    TITLE "0:"
    INDEX 01 00:21:74
  TRACK 23 AUDIO
    TITLE "11:cjc040_2018"
    INDEX 01 00:22:56
  TRACK 24 AUDIO
    TITLE "0:"
    INDEX 01 00:26:52
  TRACK 25 AUDIO
    TITLE "10:cjc040_2019"
    INDEX 01 00:27:30
  TRACK 26 AUDIO
    TITLE "0:"
    INDEX 01 00:28:43
  TRACK 27 AUDIO
    TITLE "11:cjc040_2020"
    INDEX 01 00:29:23
  TRACK 28 AUDIO
    TITLE "0:"
    INDEX 01 00:31:39
  TRACK 29 AUDIO
    TITLE "10:cjc040_2021"
    INDEX 01 00:32:13
  TRACK 30 AUDIO
    TITLE "0:"
    INDEX 01 00:33:22
  TRACK 31 AUDIO
    TITLE "11:cjc040_2022"
    INDEX 01 00:34:02
  TRACK 32 AUDIO
    TITLE "0:"
    INDEX 01 00:35:08
  TRACK 33 AUDIO
    TITLE "10:cjc040_2023"
    INDEX 01 00:35:63
  TRACK 34 AUDIO
    TITLE "0:"
    INDEX 01 00:36:70
  TRACK 35 AUDIO
    TITLE "11:cjc040_2024"
    INDEX 01 00:37:50
  TRACK 36 AUDIO
    TITLE "0:"
    INDEX 01 00:39:58
  TRACK 37 AUDIO
    TITLE "10:cjc040_2025"
    INDEX 01 00:40:34
  TRACK 38 AUDIO
    TITLE "0:"
    INDEX 01 00:41:55
  TRACK 39 AUDIO
    TITLE "11:cjc040_2026"
    INDEX 01 00:42:35
  TRACK 40 AUDIO
    TITLE "0:"
    INDEX 01 00:44:56
  TRACK 41 AUDIO
    TITLE "10:cjc040_2027"
    INDEX 01 00:45:33
  TRACK 42 AUDIO
    TITLE "0:"
    INDEX 01 00:46:58
  TRACK 43 AUDIO
    TITLE "11:cjc040_2028"
    INDEX 01 00:47:36
  TRACK 44 AUDIO
    TITLE "0:"
    INDEX 01 00:48:53
  TRACK 45 AUDIO
    TITLE "10:cjc040_2029"
    INDEX 01 00:49:33
  TRACK 46 AUDIO
    TITLE "0:"
    INDEX 01 00:50:35
  TRACK 47 AUDIO
    TITLE "11:cjc040_2030"
    INDEX 01 00:51:24
  TRACK 48 AUDIO
    TITLE "0:"
    INDEX 01 00:53:49
  TRACK 49 AUDIO
    TITLE "10:cjc040_2031"
    INDEX 01 00:54:23
  TRACK 50 AUDIO
    TITLE "0:"
    INDEX 01 00:55:46
  TRACK 51 AUDIO
    TITLE "11:cjc040_2032"
    INDEX 01 00:56:27
  TRACK 52 AUDIO
    TITLE "0:"
    INDEX 01 00:57:48
  TRACK 53 AUDIO
    TITLE "10:cjc040_2033"
    INDEX 01 00:58:34
  TRACK 54 AUDIO
    TITLE "0:"
    INDEX 01 00:59:34
  TRACK 55 AUDIO
    TITLE "11:cjc040_2034"
    INDEX 01 01:00:10
  TRACK 56 AUDIO
    TITLE "0:"
    INDEX 01 01:02:40
  TRACK 57 AUDIO
    TITLE "10:cjc040_2035"
    INDEX 01 01:03:20
  TRACK 58 AUDIO
    TITLE "0:"
    INDEX 01 01:04:25
  TRACK 59 AUDIO
    TITLE "11:cjc040_2036"
    INDEX 01 01:05:03
  TRACK 60 AUDIO
    TITLE "0:"
    INDEX 01 01:07:41
  TRACK 61 AUDIO
    TITLE "10:cjc040_2037"
    INDEX 01 01:08:29
  TRACK 62 AUDIO
    TITLE "0:"
    INDEX 01 01:09:38
  TRACK 63 AUDIO
    TITLE "11:cjc040_2038"
    INDEX 01 01:10:16
  TRACK 64 AUDIO
    TITLE "0:"
    INDEX 01 01:12:50
  TRACK 65 AUDIO
    TITLE "10:cjc040_2039"
    INDEX 01 01:13:30
  TRACK 66 AUDIO
    TITLE "0:"
    INDEX 01 01:14:41
  TRACK 67 AUDIO
    TITLE "11:cjc040_2040"
    INDEX 01 01:15:15
  TRACK 68 AUDIO
    TITLE "0:"
    INDEX 01 01:17:69
  TRACK 69 AUDIO
    TITLE "10:cjc040_2041"
    INDEX 01 01:18:47
  TRACK 70 AUDIO
    TITLE "0:"
    INDEX 01 01:19:54
  TRACK 71 AUDIO
    TITLE "11:cjc040_2042"
    INDEX 01 01:20:30
  TRACK 72 AUDIO
    TITLE "0:"
    INDEX 01 01:21:35
